<?xml version="1.0" encoding="UTF-8"?>
<!DOCTYPE svg PUBLIC "-//W3C//DTD SVG 1.1//EN" "http://www.w3.org/Graphics/SVG/1.1/DTD/svg11.dtd">
<svg xmlns="http://www.w3.org/2000/svg" version="1.1" width="2841px" height="470px" style="shape-rendering:geometricPrecision; text-rendering:geometricPrecision; image-rendering:optimizeQuality; fill-rule:evenodd; clip-rule:evenodd" xmlns:xlink="http://www.w3.org/1999/xlink">
<g><path style="opacity:0.992" fill="#b61921" d="M 3.5,5.5 C 148.167,5.5 292.833,5.5 437.5,5.5C 437.5,155.167 437.5,304.833 437.5,454.5C 399.5,454.5 361.5,454.5 323.5,454.5C 323.5,342.833 323.5,231.167 323.5,119.5C 216.833,119.5 110.167,119.5 3.5,119.5C 3.5,81.5 3.5,43.5 3.5,5.5 Z"/></g>
<g><path style="opacity:0.989" fill="#b61921" d="M 560.5,5.5 C 596.167,5.5 631.833,5.5 667.5,5.5C 686.153,82.4478 704.653,159.448 723,236.5C 730.206,268.029 736.706,299.696 742.5,331.5C 763.348,222.595 785.348,113.929 808.5,5.5C 844.073,5.1705 879.573,5.50384 915,6.5C 940.2,115.166 963.867,224.166 986,333.5C 1009.47,223.946 1035.31,114.946 1063.5,6.5C 1097.16,5.50013 1130.83,5.1668 1164.5,5.5C 1120.58,154.933 1076.25,304.267 1031.5,453.5C 999.174,454.5 966.84,454.833 934.5,454.5C 908.272,338.859 883.772,222.859 861,106.5C 855.206,140.267 848.872,173.933 842,207.5C 824.003,289.818 806.17,372.151 788.5,454.5C 756.927,454.829 725.427,454.496 694,453.5C 649.184,304.232 604.684,154.899 560.5,5.5 Z"/></g>
<g><path style="opacity:0.993" fill="#b61921" d="M 2262.5,5.5 C 2346.17,5.33334 2429.83,5.5 2513.5,6C 2544.81,7.32528 2573.15,16.9919 2598.5,35C 2629.72,61.957 2642.88,96.1237 2638,137.5C 2633.81,172.515 2615.64,197.182 2583.5,211.5C 2631.65,230.873 2655.32,266.707 2654.5,319C 2651.18,377.685 2622.51,418.351 2568.5,441C 2546.66,447.585 2524.33,451.251 2501.5,452C 2421.83,452.5 2342.17,452.667 2262.5,452.5C 2262.5,303.5 2262.5,154.5 2262.5,5.5 Z M 2358.5,83.5 C 2399.5,83.3333 2440.5,83.5 2481.5,84C 2496.6,84.1517 2510.93,87.4851 2524.5,94C 2537.65,102.737 2543.98,115.07 2543.5,131C 2542.19,154.985 2529.86,169.985 2506.5,176C 2498.65,178.198 2490.65,179.531 2482.5,180C 2441.17,180.5 2399.83,180.667 2358.5,180.5C 2358.5,148.167 2358.5,115.833 2358.5,83.5 Z M 2358.5,256.5 C 2403.17,256.333 2447.83,256.5 2492.5,257C 2513.83,257.75 2531.66,265.917 2546,281.5C 2552.02,290.74 2554.85,300.907 2554.5,312C 2554.78,342.027 2540.78,361.693 2512.5,371C 2504.32,373.307 2495.99,374.64 2487.5,375C 2444.5,375.5 2401.5,375.667 2358.5,375.5C 2358.5,335.833 2358.5,296.167 2358.5,256.5 Z"/></g>
<g><path style="opacity:0.999" fill="#b61921" d="M 2717.5,5.5 C 2756.5,5.5 2795.5,5.5 2834.5,5.5C 2834.5,155.167 2834.5,304.833 2834.5,454.5C 2795.5,454.5 2756.5,454.5 2717.5,454.5C 2717.5,304.833 2717.5,155.167 2717.5,5.5 Z"/></g>
<g><path style="opacity:0.989" fill="#b61921" d="M 1304.5,112.5 C 1335.51,111.168 1365.84,115.001 1395.5,124C 1419.08,131.189 1437.58,145.022 1451,165.5C 1456.33,174.829 1459.67,184.829 1461,195.5C 1461.05,266.847 1461.72,338.18 1463,409.5C 1463.58,419.575 1467.08,428.409 1473.5,436C 1476,437.753 1478.67,439.253 1481.5,440.5C 1482.49,445.12 1482.83,449.786 1482.5,454.5C 1448.83,454.667 1415.17,454.5 1381.5,454C 1376.81,441.885 1373.64,429.385 1372,416.5C 1341.64,448.332 1304.31,463.999 1260,463.5C 1230.23,464.107 1203.73,455.274 1180.5,437C 1160.7,417.62 1151.03,393.954 1151.5,366C 1152.21,316.875 1175.55,283.875 1221.5,267C 1229.04,264.531 1236.71,262.531 1244.5,261C 1279.92,256.156 1315.25,250.823 1350.5,245C 1368.24,238.683 1374.07,226.517 1368,208.5C 1361.85,195.701 1351.68,188.201 1337.5,186C 1320.08,182.339 1302.74,182.672 1285.5,187C 1265.61,194.073 1254.95,208.239 1253.5,229.5C 1223.5,229.5 1193.5,229.5 1163.5,229.5C 1169.16,163.313 1204.83,125.48 1270.5,116C 1281.95,114.5 1293.29,113.333 1304.5,112.5 Z M 1368.5,294.5 C 1369.83,302.138 1370.5,310.138 1370.5,318.5C 1374.29,353.767 1359.96,378.267 1327.5,392C 1309.35,399.763 1290.69,401.43 1271.5,397C 1251.17,388.188 1243.01,372.688 1247,350.5C 1249.71,336.589 1257.54,326.755 1270.5,321C 1275.09,319.136 1279.76,317.47 1284.5,316C 1306.21,311.852 1327.87,307.518 1349.5,303C 1356.43,301.197 1362.76,298.364 1368.5,294.5 Z"/></g>
<g><path style="opacity:0.987" fill="#b61921" d="M 2015.5,113.5 C 2048.56,110.82 2080.56,115.32 2111.5,127C 2154.42,146.265 2181.92,178.765 2194,224.5C 2201.19,253.399 2204.02,282.732 2202.5,312.5C 2122.17,312.5 2041.83,312.5 1961.5,312.5C 1963.29,364.293 1989.96,390.959 2041.5,392.5C 2062.75,393.255 2080.59,385.921 2095,370.5C 2097.99,366.192 2100.15,361.525 2101.5,356.5C 2133.83,356.5 2166.17,356.5 2198.5,356.5C 2185.98,400.525 2158.65,431.692 2116.5,450C 2085.89,461.773 2054.22,466.106 2021.5,463C 1928.29,455.793 1877.46,405.627 1869,312.5C 1864.01,271.438 1870.01,232.104 1887,194.5C 1907.66,154.859 1939.83,129.693 1983.5,119C 1994.22,116.639 2004.89,114.806 2015.5,113.5 Z M 2029.5,185.5 C 2074.76,186.253 2100.42,209.086 2106.5,254C 2058.83,254.833 2011.16,254.667 1963.5,253.5C 1965.67,236.473 1971.84,221.139 1982,207.5C 1995.07,194.047 2010.9,186.713 2029.5,185.5 Z"/></g>
<g><path style="opacity:0.99" fill="#b61921" d="M 1501.5,129.5 C 1535.66,128.502 1570,128.168 1604.5,128.5C 1627.84,208.193 1651.34,287.86 1675,367.5C 1699.8,288.311 1724.3,208.978 1748.5,129.5C 1781.17,128.167 1813.83,128.167 1846.5,129.5C 1805.17,237.5 1763.83,345.5 1722.5,453.5C 1689.93,454.829 1657.43,454.829 1625,453.5C 1584.06,345.301 1542.89,237.301 1501.5,129.5 Z"/></g>
<g><path style="opacity:0.987" fill="#b61921" d="M 3.5,174.5 C 83.8361,174.167 164.169,174.5 244.5,175.5C 209.683,212.818 174.683,249.984 139.5,287C 94.1679,287.5 48.8346,287.667 3.5,287.5C 3.5,249.833 3.5,212.167 3.5,174.5 Z"/></g>
<g><path style="opacity:0.989" fill="#b61921" d="M 270.5,203.5 C 272.497,286.493 273.164,369.827 272.5,453.5C 236.167,453.5 199.833,453.5 163.5,453.5C 163.333,406.499 163.5,359.499 164,312.5C 199.703,276.298 235.203,239.965 270.5,203.5 Z"/></g>
<g><path style="opacity:0.98" fill="#b61921" d="M 3.5,341.5 C 39.8333,341.5 76.1667,341.5 112.5,341.5C 112.5,379.167 112.5,416.833 112.5,454.5C 76.1667,454.5 39.8333,454.5 3.5,454.5C 3.5,416.833 3.5,379.167 3.5,341.5 Z"/></g>
</svg>
