<?xml version="1.0" standalone="no"?>
<!DOCTYPE svg PUBLIC "-//W3C//DTD SVG 20010904//EN"
 "http://www.w3.org/TR/2001/REC-SVG-20010904/DTD/svg10.dtd">
<svg version="1.0" xmlns="http://www.w3.org/2000/svg"
 width="2841.000000pt" height="470.000000pt" viewBox="0 0 2841.000000 470.000000"
 preserveAspectRatio="xMidYMid meet">

<g transform="translate(0.000000,470.000000) scale(0.100000,-0.100000)"
fill="#000000" stroke="none">
<path d="M50 4077 l0 -564 953 -6 c523 -4 1241 -7 1595 -7 l642 0 0 -1358 c0
-747 3 -1501 7 -1675 l6 -317 559 0 558 0 0 2238 0 2239 -1297 6 c-714 4
-1686 7 -2160 7 l-863 0 0 -563z"/>
<path d="M22640 2405 l0 -2235 1098 0 c603 0 1171 5 1262 10 588 35 871 137
1158 418 194 190 319 426 367 695 23 130 16 398 -14 528 -74 322 -248 542
-546 690 -65 32 -125 59 -132 59 -29 0 -9 17 55 49 294 145 453 377 493 722
49 423 -128 822 -463 1045 -140 94 -327 168 -520 208 -189 39 -205 39 -1495
43 l-1263 4 0 -2236z m2306 1445 c247 -31 404 -125 466 -278 20 -49 23 -75 23
-187 0 -126 -1 -132 -32 -198 -61 -129 -183 -218 -368 -269 -78 -22 -94 -22
-762 -26 l-683 -3 0 485 0 486 638 0 c369 0 671 -4 718 -10z m169 -1748 c321
-89 470 -298 435 -609 -31 -282 -174 -447 -455 -525 -79 -22 -93 -22 -792 -26
l-713 -3 0 596 0 596 723 -3 c711 -3 723 -4 802 -26z"/>
<path d="M5825 3923 c116 -390 418 -1398 670 -2240 l459 -1533 463 0 c255 0
463 2 463 4 0 2 96 442 214 977 321 1455 388 1779 477 2279 22 129 43 237 45
239 6 7 12 -19 49 -224 110 -604 339 -1690 658 -3120 l34 -150 478 0 478 0
653 2190 c360 1205 660 2211 668 2238 l14 47 -502 0 -502 0 -172 -692 c-311
-1253 -474 -1942 -557 -2353 -25 -126 -48 -231 -50 -233 -5 -6 -13 26 -35 153
-34 192 -122 621 -209 1019 -86 394 -459 2059 -467 2089 -5 16 -39 17 -529 17
-490 0 -524 -1 -529 -17 -19 -60 -344 -1622 -460 -2208 -74 -377 -196 -1021
-196 -1039 0 -3 -4 -6 -8 -6 -5 0 -16 46 -26 103 -58 340 -172 858 -362 1647
-93 385 -343 1403 -364 1481 l-11 39 -528 0 -528 0 212 -707z"/>
<path d="M27180 2390 l0 -2240 585 0 585 0 0 2240 0 2240 -585 0 -585 0 0
-2240z"/>
<path d="M12920 3553 c-469 -45 -741 -150 -956 -370 -169 -174 -268 -402 -319
-740 l-7 -43 446 0 446 0 5 28 c31 148 68 226 141 298 106 103 247 139 504
131 286 -9 426 -70 497 -215 24 -50 28 -69 28 -148 0 -83 -2 -94 -30 -140 -25
-40 -44 -56 -106 -87 l-74 -38 -525 -75 c-289 -40 -569 -85 -623 -99 -212 -54
-382 -144 -519 -274 -166 -157 -254 -334 -289 -580 -16 -115 -7 -334 19 -432
96 -361 351 -587 765 -676 117 -26 474 -25 602 1 290 57 507 170 733 379 l77
72 12 -90 c14 -94 43 -212 68 -271 l14 -34 495 0 496 0 0 68 -1 67 -42 20
c-77 38 -126 137 -147 295 -5 44 -10 488 -10 1076 0 841 -2 1015 -15 1087 -77
444 -472 718 -1135 787 -87 9 -467 11 -550 3z m791 -2264 c-19 -142 -70 -248
-169 -346 -134 -134 -322 -218 -549 -245 -288 -33 -485 87 -525 321 -23 135
22 299 104 378 106 102 247 150 607 208 241 39 400 83 496 138 l40 23 3 -201
c2 -110 -2 -234 -7 -276z"/>
<path d="M20195 3554 c-769 -63 -1259 -457 -1441 -1162 -54 -212 -67 -338 -61
-612 6 -252 19 -357 67 -557 81 -335 245 -614 467 -796 219 -178 486 -288 823
-337 461 -66 869 -13 1215 160 325 162 571 443 698 798 l27 72 -479 0 -479 0
-28 -58 c-59 -121 -200 -225 -369 -274 -67 -19 -103 -22 -220 -21 -208 1 -351
39 -486 128 -179 120 -275 312 -314 633 l-7 52 1213 0 1212 0 -6 193 c-8 230
-20 351 -53 517 -76 380 -244 693 -484 897 -215 185 -475 298 -795 348 -99 15
-403 27 -500 19z m380 -744 c254 -80 408 -253 475 -533 11 -45 20 -94 20 -109
l0 -28 -716 0 -716 0 7 56 c17 142 87 312 169 416 83 104 216 182 366 214 99
20 306 12 395 -16z"/>
<path d="M15032 3398 c3 -7 281 -741 619 -1631 l614 -1617 478 2 478 3 620
1620 c340 891 619 1623 619 1628 0 4 -217 6 -481 5 l-482 -3 -365 -1195 c-200
-657 -366 -1197 -368 -1199 -2 -2 -6 -2 -9 0 -2 3 -160 529 -350 1170 -190
640 -350 1179 -356 1197 l-11 32 -505 0 c-400 0 -504 -3 -501 -12z"/>
<path d="M40 2380 l0 -560 673 0 672 1 455 480 c250 264 488 516 528 560 l74
79 -1201 0 -1201 0 0 -560z"/>
<path d="M2178 2102 l-537 -547 -1 -697 0 -698 540 0 540 0 0 1245 c0 685 -1
1245 -2 1245 -2 0 -245 -247 -540 -548z"/>
<path d="M50 715 l0 -555 535 0 535 0 0 555 0 555 -535 0 -535 0 0 -555z"/>
</g>
</svg>
